# XSI Wavefront OBJ Export v3.0
# File Created: Sat Aug 11 22:49:01 2007
# XSI Version: 5.1.2006.0322
mtllib tronc.mtl

o cylinder
# Hierarchy (from self to top father)
g cylinder

#begin 20 vertices
v 15.253644 -14.944363 -110.440709
v 15.253644 -1.278877 -113.171365
v 15.110872 -14.944363 -110.440709
v 14.968099 -14.944363 -110.440709
v 14.968099 -10.290097 -110.796882
v 14.968099 -5.635830 -112.043485
v 14.968099 -1.278877 -113.171365
v 15.110872 -1.278877 -113.171365
v 15.325031 -14.944363 -110.317064
v 15.396417 -14.944363 -110.193419
v 15.396417 -10.290097 -110.549592
v 15.396417 -5.635830 -111.796196
v 15.396417 -1.278877 -112.924075
v 15.325031 -1.278877 -113.047720
v 15.325031 -14.944363 -110.564354
v 15.396417 -14.944363 -110.687999
v 15.396417 -10.290097 -111.044171
v 15.396417 -5.635830 -112.290775
v 15.396417 -1.278877 -113.418655
v 15.325031 -1.278877 -113.295010
#end 20 vertices

#begin 78 normals
vn 0.000000 -1.000000 0.000000
vn 0.000000 -1.000000 0.000000
vn 0.000000 -1.000000 0.000000
vn 0.000000 -1.000000 0.000000
vn 0.000000 -1.000000 0.000000
vn 0.000000 -1.000000 0.000000
vn -0.141690 -0.959008 -0.245414
vn -0.388499 0.629502 0.672901
vn -0.388499 0.629502 0.672901
vn -0.288260 0.817083 0.499281
vn -0.288260 0.817083 0.499281
vn -0.288260 0.817083 0.499281
vn -0.288260 0.817083 0.499281
vn -0.168842 0.941259 0.292444
vn -0.168842 0.941259 0.292444
vn -0.168842 0.941259 0.292444
vn -0.168842 0.941259 0.292444
vn -0.057914 0.993269 0.100311
vn -0.057914 0.993269 0.100311
vn -0.057914 0.993269 0.100311
vn -0.057914 0.993269 0.100311
vn 0.000000 1.000000 0.000000
vn -0.000000 1.000000 0.000000
vn -0.000000 1.000000 0.000000
vn 0.000000 1.000000 0.000000
vn 0.000000 1.000000 0.000000
vn 0.000000 -1.000000 0.000000
vn 0.000000 -1.000000 0.000000
vn 0.000000 -1.000000 0.000000
vn 0.000000 -1.000000 0.000000
vn 0.000000 -1.000000 0.000000
vn -0.141690 -0.959008 -0.245414
vn 0.000000 -1.000000 0.000000
vn 1.000000 0.000000 0.000000
vn 1.000000 0.000000 0.000000
vn 1.000000 0.000000 0.000000
vn 1.000000 0.000000 0.000000
vn 1.000000 0.000000 0.000000
vn 1.000000 0.000000 0.000000
vn 1.000000 0.000000 0.000000
vn 1.000000 0.000000 0.000000
vn 1.000000 0.000000 0.000000
vn 1.000000 0.000000 0.000000
vn 1.000000 0.000000 0.000000
vn 1.000000 0.000000 0.000000
vn -0.057914 0.993269 0.100311
vn 0.000000 1.000000 0.000000
vn 0.000000 1.000000 -0.000000
vn 0.000000 1.000000 0.000000
vn 0.000000 1.000000 0.000000
vn 0.000000 1.000000 -0.000000
vn 0.000000 1.000000 0.000000
vn 0.000000 -1.000000 0.000000
vn 0.000000 -1.000000 0.000000
vn 0.000000 -1.000000 0.000000
vn 0.000000 -1.000000 0.000000
vn 0.000000 -1.000000 0.000000
vn -0.141690 -0.959008 -0.245414
vn -0.141690 -0.959008 -0.245414
vn -0.141690 -0.959008 -0.245414
vn -0.141690 -0.959008 -0.245414
vn -0.288260 -0.817083 -0.499281
vn -0.288260 -0.817083 -0.499281
vn -0.288260 -0.817083 -0.499281
vn -0.288260 -0.817083 -0.499281
vn -0.168842 -0.941259 -0.292444
vn -0.168842 -0.941259 -0.292444
vn -0.168842 -0.941259 -0.292444
vn -0.168842 -0.941259 -0.292444
vn -0.171388 -0.939417 -0.296853
vn -0.171388 -0.939417 -0.296853
vn 0.000000 1.000000 0.000000
vn -0.057914 0.993269 0.100311
vn -0.000000 1.000000 0.000000
vn 0.000000 1.000000 -0.000000
vn 0.000000 1.000000 -0.000000
vn -0.000000 1.000000 0.000000
vn 0.000000 1.000000 0.000000
#end 78 vertex normals

#begin 21 faces
usemtl material
f 9//1 3//2 1//3 
usemtl material
f 3//4 9//5 10//6 4//7 
usemtl material
f 4//8 10//9 11//10 5//11 
usemtl material
f 5//12 11//13 12//14 6//15 
usemtl material
f 6//16 12//17 13//18 7//19 
usemtl material
f 7//20 13//21 14//22 8//23 
usemtl material
f 8//24 14//25 2//26 
usemtl material
f 15//27 9//28 1//29 
usemtl material
f 9//30 15//31 16//32 10//33 
usemtl material
f 10//34 16//35 17//36 11//37 
usemtl material
f 11//38 17//39 18//40 12//41 
usemtl material
f 12//42 18//43 19//44 13//45 
usemtl material
f 13//46 19//47 20//48 14//49 
usemtl material
f 14//50 20//51 2//52 
usemtl material
f 3//53 15//54 1//55 
usemtl material
f 15//56 3//57 4//58 16//59 
usemtl material
f 16//60 4//61 5//62 17//63 
usemtl material
f 17//64 5//65 6//66 18//67 
usemtl material
f 18//68 6//69 7//70 19//71 
usemtl material
f 19//72 7//73 8//74 20//75 
usemtl material
f 20//76 8//77 2//78 
#end 21 faces
